<?xml version="1.0" encoding="iso-8859-1"?>
<!-- Generator: Adobe Illustrator 19.0.0, SVG Export Plug-In . SVG Version: 6.00 Build 0)  -->
<svg version="1.1" id="Layer_1" xmlns="http://www.w3.org/2000/svg" xmlns:xlink="http://www.w3.org/1999/xlink" x="0px" y="0px"
	 viewBox="0 0 512 512" style="enable-background:new 0 0 512 512;" xml:space="preserve">
<path style="fill:#9B735A;" d="M409.921,42.221H102.079c-14.168,0-25.653,11.485-25.653,25.653V478.33
	c0,14.168,11.485,25.653,25.653,25.653h307.841c14.168,0,25.653-11.485,25.653-25.653V67.875
	C435.574,53.707,424.089,42.221,409.921,42.221z"/>
<rect x="110.63" y="76.426" style="fill:#F1F4FB;" width="290.739" height="393.353"/>
<path style="fill:#FFF082;" d="M315.858,25.119h-30.397C279.536,14.938,268.628,8.017,256,8.017
	c-12.628,0-23.536,6.921-29.461,17.102h-30.397c-9.446,0-17.102,7.656-17.102,17.102v34.205H332.96V42.221
	C332.96,32.775,325.304,25.119,315.858,25.119z"/>
<circle style="fill:#FF507D;" cx="179.04" cy="179.04" r="25.653"/>
<circle style="fill:#FF8C66;" cx="179.04" cy="273.102" r="25.653"/>
<circle style="fill:#FFC850;" cx="179.04" cy="367.165" r="25.653"/>
<path d="M409.921,34.205h-70.263c-3.354-9.93-12.752-17.102-23.8-17.102H289.76C281.839,6.451,269.292,0,256,0
	s-25.839,6.451-33.76,17.102h-26.098c-11.048,0-20.446,7.172-23.8,17.102h-70.263c-18.566,0-33.67,15.105-33.67,33.67V478.33
	c0,18.566,15.105,33.67,33.67,33.67h307.841c18.566,0,33.67-15.105,33.67-33.67V67.875
	C443.591,49.309,428.486,34.205,409.921,34.205z M196.142,33.136h30.397c2.854,0,5.493-1.517,6.929-3.985
	c4.781-8.213,13.204-13.117,22.532-13.117c9.328,0,17.751,4.904,22.532,13.117c1.436,2.467,4.075,3.985,6.929,3.985h30.397
	c4.999,0,9.067,4.059,9.085,9.055c0,0.011-0.001,0.02-0.001,0.031c0,0.021,0.003,0.042,0.003,0.062v26.126H187.056V42.242
	c0-0.007,0.001-0.014,0.001-0.02c0-0.003,0-0.006,0-0.011C187.063,37.206,191.135,33.136,196.142,33.136z M427.557,478.33
	c0,9.725-7.912,17.637-17.637,17.637H102.079c-9.725,0-17.637-7.912-17.637-17.637V67.875c0-9.725,7.912-17.637,17.637-17.637
	h68.944v26.188c0,4.427,3.589,8.017,8.017,8.017H332.96c4.427,0,8.017-3.589,8.017-8.017V50.238h68.944
	c9.725,0,17.637,7.912,17.637,17.637V478.33z"/>
<path d="M256.086,50.238c4.427,0,8.017-3.589,8.017-8.017s-3.589-8.017-8.017-8.017H256c-4.427,0-7.974,3.589-7.974,8.017
	S251.658,50.238,256.086,50.238z"/>
<path d="M401.37,68.409h-34.206c-4.427,0-8.017,3.589-8.017,8.017s3.589,8.017,8.017,8.017h26.189v377.319H118.647V84.443h26.19
	c4.427,0,8.017-3.589,8.017-8.017s-3.589-8.017-8.017-8.017H110.63c-4.427,0-8.017,3.589-8.017,8.017v393.353
	c0,4.427,3.589,8.017,8.017,8.017H401.37c4.427,0,8.017-3.589,8.017-8.017V76.426C409.386,71.999,405.797,68.409,401.37,68.409z"/>
<path d="M179.04,212.71c18.566,0,33.67-15.105,33.67-33.67c0-4.427-3.589-8.017-8.017-8.017s-8.017,3.589-8.017,8.017
	c0,9.725-7.912,17.637-17.637,17.637c-9.725,0-17.637-7.912-17.637-17.637c0-9.725,7.912-17.637,17.637-17.637
	c4.427,0,8.017-3.589,8.017-8.017c0-4.427-3.589-8.017-8.017-8.017c-18.566,0-33.67,15.105-33.67,33.67
	S160.474,212.71,179.04,212.71z"/>
<path d="M204.693,265.086c-4.427,0-8.017,3.589-8.017,8.017c0,9.725-7.912,17.637-17.637,17.637
	c-9.725,0-17.637-7.912-17.637-17.637s7.912-17.637,17.637-17.637c4.427,0,8.017-3.589,8.017-8.017s-3.589-8.017-8.017-8.017
	c-18.566,0-33.67,15.105-33.67,33.67c0,18.566,15.105,33.67,33.67,33.67s33.67-15.105,33.67-33.67
	C212.71,268.675,209.12,265.086,204.693,265.086z"/>
<path d="M238.898,298.221h119.716c4.427,0,8.017-3.589,8.017-8.017c0-4.427-3.589-8.017-8.017-8.017H238.898
	c-4.427,0-8.017,3.589-8.017,8.017C230.881,294.632,234.47,298.221,238.898,298.221z"/>
<path d="M238.898,264.017h85.511c4.427,0,8.017-3.589,8.017-8.017c0-4.427-3.589-8.017-8.017-8.017h-85.511
	c-4.427,0-8.017,3.589-8.017,8.017C230.881,260.427,234.47,264.017,238.898,264.017z"/>
<path d="M238.898,204.159h119.716c4.427,0,8.017-3.589,8.017-8.017s-3.589-8.017-8.017-8.017H238.898
	c-4.427,0-8.017,3.589-8.017,8.017S234.47,204.159,238.898,204.159z"/>
<path d="M238.898,169.954h85.511c4.427,0,8.017-3.589,8.017-8.017s-3.589-8.017-8.017-8.017h-85.511
	c-4.427,0-8.017,3.589-8.017,8.017S234.47,169.954,238.898,169.954z"/>
<path d="M179.04,349.528c4.427,0,8.017-3.589,8.017-8.017c0-4.427-3.589-8.017-8.017-8.017c-18.566,0-33.67,15.105-33.67,33.67
	c0,18.566,15.105,33.67,33.67,33.67s33.67-15.105,33.67-33.67c0-4.427-3.589-8.017-8.017-8.017s-8.017,3.589-8.017,8.017
	c0,9.725-7.912,17.637-17.637,17.637c-9.725,0-17.637-7.912-17.637-17.637C161.403,357.44,169.315,349.528,179.04,349.528z"/>
<path d="M238.898,392.284h119.716c4.427,0,8.017-3.589,8.017-8.017c0-4.427-3.589-8.017-8.017-8.017H238.898
	c-4.427,0-8.017,3.589-8.017,8.017C230.881,388.695,234.47,392.284,238.898,392.284z"/>
<path d="M238.898,358.079h85.511c4.427,0,8.017-3.589,8.017-8.017c0-4.427-3.589-8.017-8.017-8.017h-85.511
	c-4.427,0-8.017,3.589-8.017,8.017C230.881,354.49,234.47,358.079,238.898,358.079z"/>
<g>
</g>
<g>
</g>
<g>
</g>
<g>
</g>
<g>
</g>
<g>
</g>
<g>
</g>
<g>
</g>
<g>
</g>
<g>
</g>
<g>
</g>
<g>
</g>
<g>
</g>
<g>
</g>
<g>
</g>
</svg>
